999
dxfrw 0.6.3
  0
SECTION
  2
HEADER
  9
$ACADVER
  1
AC1021
  9
$DWGCODEPAGE
  3
ANSI_1252
  9
$INSBASE
 10
0
 20
0
 30
0
  9
$EXTMIN
 10
-50
 20
-50
 30
0
  9
$EXTMAX
 10
50
 20
50
 30
0
  9
$LIMMIN
 10
0
 20
0
  9
$LIMMAX
 10
420
 20
297
  9
$ORTHOMODE
 70
    0
  9
$REGENMODE
 70
    1
  9
$FILLMODE
 70
    1
  9
$QTEXTMODE
 70
    0
  9
$MIRRTEXT
 70
    0
  9
$LTSCALE
 40
1
  9
$ATTMODE
 70
    0
  9
$TEXTSIZE
 40
2.5
  9
$TRACEWID
 40
15.68
  9
$TEXTSTYLE
  7
STANDARD
  9
$CLAYER
  8
100
  9
$CELTYPE
  6
BYLAYER
  9
$CECOLOR
 62
  256
  9
$CELTSCALE
 40
1
  9
$DISPSILH
 70
    0
  9
$DIMSCALE
 40
2.5
  9
$DIMASZ
 40
2.5
  9
$DIMEXO
 40
0.625
  9
$DIMDLI
 40
3.75
  9
$DIMRND
 40
0
  9
$DIMDLE
 40
0
  9
$DIMEXE
 40
1.25
  9
$DIMTP
 40
0
  9
$DIMTM
 40
0
  9
$DIMTXT
 40
2.5
  9
$DIMCEN
 40
2.5
  9
$DIMTSZ
 40
0
  9
$DIMTOL
 70
    0
  9
$DIMLIM
 70
    0
  9
$DIMTIH
 70
    0
  9
$DIMTOH
 70
    0
  9
$DIMSE1
 70
    0
  9
$DIMSE2
 70
    0
  9
$DIMTAD
 70
    1
  9
$DIMZIN
 70
    8
  9
$DIMBLK
  1

  9
$DIMASO
 70
    1
  9
$DIMSHO
 70
    1
  9
$DIMPOST
  1

  9
$DIMAPOST
  1

  9
$DIMALT
 70
    0
  9
$DIMALTD
 70
    3
  9
$DIMALTF
 40
0.03937
  9
$DIMLFAC
 40
1
  9
$DIMTOFL
 70
    1
  9
$DIMTVP
 40
0
  9
$DIMTIX
 70
    0
  9
$DIMSOXD
 70
    0
  9
$DIMSAH
 70
    0
  9
$DIMBLK1
  1

  9
$DIMBLK2
  1

  9
$DIMSTYLE
  2
STANDARD
  9
$DIMCLRD
 70
    0
  9
$DIMCLRE
 70
    0
  9
$DIMCLRT
 70
    0
  9
$DIMTFAC
 40
1
  9
$DIMGAP
 40
0.625
  9
$DIMJUST
 70
    0
  9
$DIMSD1
 70
    0
  9
$DIMSD2
 70
    0
  9
$DIMTOLJ
 70
    0
  9
$DIMTZIN
 70
    8
  9
$DIMALTZ
 70
    0
  9
$DIMALTTZ
 70
    0
  9
$DIMUPT
 70
    0
  9
$DIMDEC
 70
    2
  9
$DIMTDEC
 70
    2
  9
$DIMALTU
 70
    2
  9
$DIMALTTD
 70
    3
  9
$DIMTXSTY
  7
STANDARD
  9
$DIMAUNIT
 70
    0
  9
$DIMADEC
 70
    0
  9
$DIMALTRND
 40
0
  9
$DIMAZIN
 70
    0
  9
$DIMDSEP
 70
   44
  9
$DIMATFIT
 70
    3
  9
$DIMFRAC
 70
    0
  9
$DIMLDRBLK
  1
STANDARD
  9
$DIMLUNIT
 70
    2
  9
$DIMLWD
 70
   -2
  9
$DIMLWE
 70
   -2
  9
$DIMTMOVE
 70
    0
  9
$DIMFXL
 40
1
  9
$DIMFXLON
 70
    0
  9
$DIMJOGANG
 40
0.7854
  9
$DIMTFILL
 70
    0
  9
$DIMTFILLCLR
 70
    0
  9
$DIMARCSYM
 70
    0
  9
$DIMLTYPE
  6

  9
$DIMLTEX1
  6

  9
$DIMLTEX2
  6

  9
$LUNITS
 70
    2
  9
$LUPREC
 70
    4
  9
$SKETCHINC
 40
1
  9
$FILLETRAD
 40
0
  9
$AUNITS
 70
    0
  9
$AUPREC
 70
    2
  9
$MENU
  1
.
  9
$ELEVATION
 40
0
  9
$PELEVATION
 40
0
  9
$THICKNESS
 40
0
  9
$LIMCHECK
 70
    0
  9
$CHAMFERA
 40
0
  9
$CHAMFERB
 40
0
  9
$CHAMFERC
 40
0
  9
$CHAMFERD
 40
0
  9
$SKPOLY
 70
    0
  9
$USRTIMER
 70
    1
  9
$ANGBASE
 50
0
  9
$ANGDIR
 70
    0
  9
$PDMODE
 70
   34
  9
$PDSIZE
 40
0
  9
$PLINEWID
 40
0
  9
$SPLFRAME
 70
    0
  9
$SPLINETYPE
 70
    2
  9
$SPLINESEGS
 70
    8
  9
$HANDSEED
  5
20000
  9
$SURFTAB1
 70
    6
  9
$SURFTAB2
 70
    6
  9
$SURFTYPE
 70
    6
  9
$SURFU
 70
    6
  9
$SURFV
 70
    6
  9
$UCSBASE
  2

  9
$UCSNAME
  2

  9
$UCSORG
 10
0
 20
0
 30
0
  9
$UCSXDIR
 10
1
 20
0
 30
0
  9
$UCSYDIR
 10
0
 20
1
 30
0
  9
$UCSORTHOREF
  2

  9
$UCSORTHOVIEW
 70
    0
  9
$UCSORGTOP
 10
0
 20
0
 30
0
  9
$UCSORGBOTTOM
 10
0
 20
0
 30
0
  9
$UCSORGLEFT
 10
0
 20
0
 30
0
  9
$UCSORGRIGHT
 10
0
 20
0
 30
0
  9
$UCSORGFRONT
 10
0
 20
0
 30
0
  9
$UCSORGBACK
 10
0
 20
0
 30
0
  9
$PUCSBASE
  2

  9
$PUCSNAME
  2

  9
$PUCSORG
 10
0
 20
0
 30
0
  9
$PUCSXDIR
 10
1
 20
0
 30
0
  9
$PUCSYDIR
 10
0
 20
1
 30
0
  9
$PUCSORTHOREF
  2

  9
$PUCSORTHOVIEW
 70
    0
  9
$PUCSORGTOP
 10
0
 20
0
 30
0
  9
$PUCSORGBOTTOM
 10
0
 20
0
 30
0
  9
$PUCSORGLEFT
 10
0
 20
0
 30
0
  9
$PUCSORGRIGHT
 10
0
 20
0
 30
0
  9
$PUCSORGFRONT
 10
0
 20
0
 30
0
  9
$PUCSORGBACK
 10
0
 20
0
 30
0
  9
$USERI1
 70
    0
  9
$USERI2
 70
    0
  9
$USERI3
 70
    0
  9
$USERI4
 70
    0
  9
$USERI5
 70
    0
  9
$USERR1
 40
0
  9
$USERR2
 40
0
  9
$USERR3
 40
0
  9
$USERR4
 40
0
  9
$USERR5
 40
0
  9
$WORLDVIEW
 70
    1
  9
$SHADEDGE
 70
    3
  9
$SHADEDIF
 70
   70
  9
$TILEMODE
 70
    1
  9
$MAXACTVP
 70
   64
  9
$PINSBASE
 10
107.95
 20
139.7
 30
0
  9
$PLIMCHECK
 70
    0
  9
$PEXTMIN
 10
0
 20
0
 30
0
  9
$PEXTMAX
 10
0
 20
0
 30
0
  9
$GRIDMODE
 70
    1
  9
$SNAPSTYLE
 70
    0
  9
$PLIMMIN
 10
0
 20
0
  9
$PLIMMAX
 10
215.9
 20
279.4
  9
$UNITMODE
 70
    0
  9
$VISRETAIN
 70
    1
  9
$PLINEGEN
 70
    0
  9
$PSLTSCALE
 70
    1
  9
$TREEDEPTH
 70
 3020
  9
$CMLSTYLE
  2
Standard
  9
$CMLJUST
 70
    0
  9
$CMLSCALE
 40
20
  9
$PROXYGRAPHICS
 70
    1
  9
$MEASUREMENT
 70
    1
  9
$CELWEIGHT
370
   -1
  9
$ENDCAPS
280
    0
  9
$JOINSTYLE
280
    0
  9
$LWDISPLAY
290
    0
  9
$INSUNITS
 70
    4
  9
$HYPERLINKBASE
  1

  9
$STYLESHEET
  1

  9
$XEDIT
290
    1
  9
$CEPSNTYPE
380
    0
  9
$PSTYLEMODE
290
    1
  9
$EXTNAMES
290
    1
  9
$PSVPSCALE
 40
1
  9
$OLESTARTUP
290
    0
  9
$SORTENTS
280
  127
  9
$INDEXCTL
280
    0
  9
$HIDETEXT
280
    1
  9
$XCLIPFRAME
290
    0
  9
$HALOGAP
280
    0
  9
$OBSCOLOR
 70
  257
  9
$OBSLTYPE
280
    0
  9
$INTERSECTIONDISPLAY
280
    0
  9
$INTERSECTIONCOLOR
 70
  257
  9
$DIMASSOC
280
    1
  9
$PROJECTNAME
  1

  9
$CAMERADISPLAY
290
    0
  9
$LENSLENGTH
 40
50
  9
$CAMERAHEIGHT
 40
0
  9
$STEPSPERSEC
 40
2
  9
$STEPSIZE
 40
50
  9
$3DDWFPREC
 40
2
  9
$PSOLWIDTH
 40
5
  9
$PSOLHEIGHT
 40
80
  9
$LOFTANG1
 40
1.570796326794897
  9
$LOFTANG2
 40
1.570796326794897
  9
$LOFTMAG1
 40
0
  9
$LOFTMAG2
 40
0
  9
$LOFTPARAM
 70
    7
  9
$LOFTNORMALS
280
    1
  9
$LATITUDE
 40
1
  9
$LONGITUDE
 40
1
  9
$NORTHDIRECTION
 40
0
  9
$TIMEZONE
 70
-8000
  9
$LIGHTGLYPHDISPLAY
280
    1
  9
$TILEMODELIGHTSYNCH
280
    1
  9
$SOLIDHIST
280
    1
  9
$SHOWHIST
280
    1
  9
$DWFFRAME
280
    2
  9
$DGNFRAME
280
    0
  9
$REALWORLDSCALE
290
    1
  9
$INTERFERECOLOR
 62
    1
  9
$CSHADOW
280
    0
  9
$SHADOWPLANELOCATION
 40
0
  0
ENDSEC
  0
SECTION
  2
CLASSES
  0
ENDSEC
  0
SECTION
  2
TABLES
  0
TABLE
  2
VPORT
  5
8
330
0
100
AcDbSymbolTable
 70
    1
  0
VPORT
  5
31
330
2
100
AcDbSymbolTableRecord
100
AcDbViewportTableRecord
  2
*ACTIVE
 70
    0
 10
0
 20
0
 11
1
 21
1
 12
7.483275668959648
 22
5.97194744562074
 13
0
 23
0
 14
10
 24
10
 15
10
 25
10
 16
0
 26
0
 36
1
 17
0
 27
0
 37
0
 40
21.56944163406017
 41
1.234013605442177
 42
50
 43
0
 44
0
 50
0
 51
0
 71
    0
 72
  100
 73
    1
 74
    3
 75
    0
 76
    1
 77
    0
 78
    0
281
    0
 65
    1
110
0
120
0
130
0
111
1
121
0
131
0
112
0
122
1
132
0
 79
    0
146
0
348
10020
 60
    7
 61
    5
292
1
282
    1
141
0
142
0
 63
  250
421
3358443
  0
ENDTAB
  0
TABLE
  2
LTYPE
  5
5
330
0
100
AcDbSymbolTable
 70
    4
  0
LTYPE
  5
14
330
5
100
AcDbSymbolTableRecord
100
AcDbLinetypeTableRecord
  2
ByBlock
 70
    0
  3

 72
   65
 73
    0
 40
0
  0
LTYPE
  5
15
330
5
100
AcDbSymbolTableRecord
100
AcDbLinetypeTableRecord
  2
ByLayer
 70
    0
  3

 72
   65
 73
    0
 40
0
  0
LTYPE
  5
16
330
5
100
AcDbSymbolTableRecord
100
AcDbLinetypeTableRecord
  2
Continuous
 70
    0
  3
Solid line
 72
   65
 73
    0
 40
0
  0
LTYPE
  5
32
330
5
100
AcDbSymbolTableRecord
100
AcDbLinetypeTableRecord
  2
DOT
 70
    0
  3
Dot . . . . . . . . . . . . . . . . . . . . . .
 72
   65
 73
    2
 40
6.35
 49
0
 74
    0
 49
-6.35
 74
    0
  0
LTYPE
  5
33
330
5
100
AcDbSymbolTableRecord
100
AcDbLinetypeTableRecord
  2
DOTTINY
 70
    0
  3
Dot (.15x) .....................................
 72
   65
 73
    2
 40
0.9525
 49
0
 74
    0
 49
-0.9525
 74
    0
  0
LTYPE
  5
34
330
5
100
AcDbSymbolTableRecord
100
AcDbLinetypeTableRecord
  2
DOT2
 70
    0
  3
Dot (.5x) .....................................
 72
   65
 73
    2
 40
3.175
 49
0
 74
    0
 49
-3.175
 74
    0
  0
LTYPE
  5
35
330
5
100
AcDbSymbolTableRecord
100
AcDbLinetypeTableRecord
  2
DOTX2
 70
    0
  3
Dot (2x) .  .  .  .  .  .  .  .  .  .  .  .  .
 72
   65
 73
    2
 40
12.7
 49
0
 74
    0
 49
-12.7
 74
    0
  0
LTYPE
  5
36
330
5
100
AcDbSymbolTableRecord
100
AcDbLinetypeTableRecord
  2
DASHED
 70
    0
  3
Dashed _ _ _ _ _ _ _ _ _ _ _ _ _ _ _ _ _
 72
   65
 73
    2
 40
19.05
 49
12.7
 74
    0
 49
-6.35
 74
    0
  0
LTYPE
  5
37
330
5
100
AcDbSymbolTableRecord
100
AcDbLinetypeTableRecord
  2
DASHEDTINY
 70
    0
  3
Dashed (.15x) _ _ _ _ _ _ _ _ _ _ _ _ _ _ _ _ _
 72
   65
 73
    2
 40
2.8575
 49
1.905
 74
    0
 49
-0.9525
 74
    0
  0
LTYPE
  5
38
330
5
100
AcDbSymbolTableRecord
100
AcDbLinetypeTableRecord
  2
DASHED2
 70
    0
  3
Dashed (.5x) _ _ _ _ _ _ _ _ _ _ _ _ _ _ _ _ _
 72
   65
 73
    2
 40
9.524999999999999
 49
6.35
 74
    0
 49
-3.175
 74
    0
  0
LTYPE
  5
39
330
5
100
AcDbSymbolTableRecord
100
AcDbLinetypeTableRecord
  2
DASHEDX2
 70
    0
  3
Dashed (2x) ____  ____  ____  ____  ____  ___
 72
   65
 73
    2
 40
38.09999999999999
 49
25.4
 74
    0
 49
-12.7
 74
    0
  0
LTYPE
  5
3A
330
5
100
AcDbSymbolTableRecord
100
AcDbLinetypeTableRecord
  2
DASHDOT
 70
    0
  3
Dash dot __ . __ . __ . __ . __ . __ . __ . __
 72
   65
 73
    4
 40
25.4
 49
12.7
 74
    0
 49
-6.35
 74
    0
 49
0
 74
    0
 49
-6.35
 74
    0
  0
LTYPE
  5
3B
330
5
100
AcDbSymbolTableRecord
100
AcDbLinetypeTableRecord
  2
DASHDOTTINY
 70
    0
  3
Dash dot (.15x) _._._._._._._._._._._._._._._.
 72
   65
 73
    4
 40
3.81
 49
1.905
 74
    0
 49
-0.9525
 74
    0
 49
0
 74
    0
 49
-0.9525
 74
    0
  0
LTYPE
  5
3C
330
5
100
AcDbSymbolTableRecord
100
AcDbLinetypeTableRecord
  2
DASHDOT2
 70
    0
  3
Dash dot (.5x) _._._._._._._._._._._._._._._.
 72
   65
 73
    4
 40
12.7
 49
6.35
 74
    0
 49
-3.175
 74
    0
 49
0
 74
    0
 49
-3.175
 74
    0
  0
LTYPE
  5
3D
330
5
100
AcDbSymbolTableRecord
100
AcDbLinetypeTableRecord
  2
DASHDOTX2
 70
    0
  3
Dash dot (2x) ____  .  ____  .  ____  .  ___
 72
   65
 73
    4
 40
50.8
 49
25.4
 74
    0
 49
-12.7
 74
    0
 49
0
 74
    0
 49
-12.7
 74
    0
  0
LTYPE
  5
3E
330
5
100
AcDbSymbolTableRecord
100
AcDbLinetypeTableRecord
  2
DIVIDE
 70
    0
  3
Divide ____ . . ____ . . ____ . . ____ . . ____
 72
   65
 73
    6
 40
31.75
 49
12.7
 74
    0
 49
-6.35
 74
    0
 49
0
 74
    0
 49
-6.35
 74
    0
 49
0
 74
    0
 49
-6.35
 74
    0
  0
LTYPE
  5
3F
330
5
100
AcDbSymbolTableRecord
100
AcDbLinetypeTableRecord
  2
DIVIDETINY
 70
    0
  3
Divide (.15x) __..__..__..__..__..__..__..__.._
 72
   65
 73
    6
 40
4.7625
 49
1.905
 74
    0
 49
-0.9525
 74
    0
 49
0
 74
    0
 49
-0.9525
 74
    0
 49
0
 74
    0
 49
-0.9525
 74
    0
  0
LTYPE
  5
40
330
5
100
AcDbSymbolTableRecord
100
AcDbLinetypeTableRecord
  2
DIVIDE2
 70
    0
  3
Divide (.5x) __..__..__..__..__..__..__..__.._
 72
   65
 73
    6
 40
15.875
 49
6.35
 74
    0
 49
-3.175
 74
    0
 49
0
 74
    0
 49
-3.175
 74
    0
 49
0
 74
    0
 49
-3.175
 74
    0
  0
LTYPE
  5
41
330
5
100
AcDbSymbolTableRecord
100
AcDbLinetypeTableRecord
  2
DIVIDEX2
 70
    0
  3
Divide (2x) ________  .  .  ________  .  .  _
 72
   65
 73
    6
 40
63.5
 49
25.4
 74
    0
 49
-12.7
 74
    0
 49
0
 74
    0
 49
-12.7
 74
    0
 49
0
 74
    0
 49
-12.7
 74
    0
  0
LTYPE
  5
42
330
5
100
AcDbSymbolTableRecord
100
AcDbLinetypeTableRecord
  2
BORDER
 70
    0
  3
Border __ __ . __ __ . __ __ . __ __ . __ __ .
 72
   65
 73
    6
 40
44.45
 49
12.7
 74
    0
 49
-6.35
 74
    0
 49
12.7
 74
    0
 49
-6.35
 74
    0
 49
0
 74
    0
 49
-6.35
 74
    0
  0
LTYPE
  5
43
330
5
100
AcDbSymbolTableRecord
100
AcDbLinetypeTableRecord
  2
BORDERTINY
 70
    0
  3
Border (.15x) __.__.__.__.__.__.__.__.__.__.__.
 72
   65
 73
    6
 40
6.6675
 49
1.905
 74
    0
 49
-0.9525
 74
    0
 49
1.905
 74
    0
 49
-0.9525
 74
    0
 49
0
 74
    0
 49
-0.9525
 74
    0
  0
LTYPE
  5
44
330
5
100
AcDbSymbolTableRecord
100
AcDbLinetypeTableRecord
  2
BORDER2
 70
    0
  3
Border (.5x) __.__.__.__.__.__.__.__.__.__.__.
 72
   65
 73
    6
 40
22.225
 49
6.35
 74
    0
 49
-3.175
 74
    0
 49
6.35
 74
    0
 49
-3.175
 74
    0
 49
0
 74
    0
 49
-3.175
 74
    0
  0
LTYPE
  5
45
330
5
100
AcDbSymbolTableRecord
100
AcDbLinetypeTableRecord
  2
BORDERX2
 70
    0
  3
Border (2x) ____  ____  .  ____  ____  .  ___
 72
   65
 73
    6
 40
88.89999999999999
 49
25.4
 74
    0
 49
-12.7
 74
    0
 49
25.4
 74
    0
 49
-12.7
 74
    0
 49
0
 74
    0
 49
-12.7
 74
    0
  0
LTYPE
  5
46
330
5
100
AcDbSymbolTableRecord
100
AcDbLinetypeTableRecord
  2
CENTER
 70
    0
  3
Center ____ _ ____ _ ____ _ ____ _ ____ _ ____
 72
   65
 73
    4
 40
50.8
 49
31.75
 74
    0
 49
-6.35
 74
    0
 49
6.35
 74
    0
 49
-6.35
 74
    0
  0
LTYPE
  5
47
330
5
100
AcDbSymbolTableRecord
100
AcDbLinetypeTableRecord
  2
CENTERTINY
 70
    0
  3
Center (.15x) ___ _ ___ _ ___ _ ___ _ ___ _ ___
 72
   65
 73
    4
 40
7.619999999999999
 49
4.7625
 74
    0
 49
-0.9525
 74
    0
 49
0.9525
 74
    0
 49
-0.9525
 74
    0
  0
LTYPE
  5
48
330
5
100
AcDbSymbolTableRecord
100
AcDbLinetypeTableRecord
  2
CENTER2
 70
    0
  3
Center (.5x) ___ _ ___ _ ___ _ ___ _ ___ _ ___
 72
   65
 73
    4
 40
28.575
 49
19.05
 74
    0
 49
-3.175
 74
    0
 49
3.175
 74
    0
 49
-3.175
 74
    0
  0
LTYPE
  5
49
330
5
100
AcDbSymbolTableRecord
100
AcDbLinetypeTableRecord
  2
CENTERX2
 70
    0
  3
Center (2x) ________  __  ________  __  _____
 72
   65
 73
    4
 40
101.6
 49
63.5
 74
    0
 49
-12.7
 74
    0
 49
12.7
 74
    0
 49
-12.7
 74
    0
  0
ENDTAB
  0
TABLE
  2
LAYER
  5
2
330
0
100
AcDbSymbolTable
 70
    1
  0
LAYER
  5
10
330
2
100
AcDbSymbolTableRecord
100
AcDbLayerTableRecord
  2
0
 70
    1
 62
    7
  6
CONTINUOUS
370
   25
390
F
  0
LAYER
  5
4A
330
2
100
AcDbSymbolTableRecord
100
AcDbLayerTableRecord
  2
1
 70
    1
 62
   16
420
8388608
  6
CONTINUOUS
370
    0
390
F
  0
LAYER
  5
4B
330
2
100
AcDbSymbolTableRecord
100
AcDbLayerTableRecord
  2
10
 70
    1
 62
    5
  6
CONTINUOUS
370
    0
390
F
  0
LAYER
  5
4C
330
2
100
AcDbSymbolTableRecord
100
AcDbLayerTableRecord
  2
100
 70
    0
 62
    8
  6
CONTINUOUS
370
    0
390
F
  0
LAYER
  5
4D
330
2
100
AcDbSymbolTableRecord
100
AcDbLayerTableRecord
  2
101
 70
    0
 62
    7
  6
CONTINUOUS
370
    0
390
F
  0
LAYER
  5
4E
330
2
100
AcDbSymbolTableRecord
100
AcDbLayerTableRecord
  2
11
 70
    1
 62
  176
420
  128
  6
CONTINUOUS
370
    0
390
F
  0
LAYER
  5
4F
330
2
100
AcDbSymbolTableRecord
100
AcDbLayerTableRecord
  2
30
 70
    1
 62
    1
  6
CONTINUOUS
370
    0
390
F
  0
LAYER
  5
50
330
2
100
AcDbSymbolTableRecord
100
AcDbLayerTableRecord
  2
40
 70
    1
 62
   96
420
32768
  6
CONTINUOUS
370
    0
390
F
  0
LAYER
  5
51
330
2
100
AcDbSymbolTableRecord
100
AcDbLayerTableRecord
  2
ref
 70
    1
 62
    2
  6
CONTINUOUS
370
    0
390
F
  0
ENDTAB
  0
TABLE
  2
STYLE
  5
3
330
0
100
AcDbSymbolTable
 70
    3
  0
STYLE
  5
52
330
2
100
AcDbSymbolTableRecord
100
AcDbTextStyleTableRecord
  2
Standard
 70
    0
 40
0
 41
1
 50
0
 71
    0
 42
1
  3
txt
  4

  0
ENDTAB
  0
TABLE
  2
VIEW
  5
6
330
0
100
AcDbSymbolTable
 70
    0
  0
ENDTAB
  0
TABLE
  2
UCS
  5
7
330
0
100
AcDbSymbolTable
 70
    0
  0
ENDTAB
  0
TABLE
  2
APPID
  5
9
330
0
100
AcDbSymbolTable
 70
    1
  0
APPID
  5
12
330
9
100
AcDbSymbolTableRecord
100
AcDbRegAppTableRecord
  2
ACAD
 70
    0
  0
APPID
  5
53
330
9
100
AcDbSymbolTableRecord
100
AcDbRegAppTableRecord
  2
LibreCad
 70
    0
  0
ENDTAB
  0
TABLE
  2
DIMSTYLE
  5
A
330
0
100
AcDbSymbolTable
 70
    1
100
AcDbDimStyleTable
 71
    1
  0
DIMSTYLE
105
54
330
A
100
AcDbSymbolTableRecord
100
AcDbDimStyleTableRecord
  2
Standard
 70
    0
 40
2.5
 41
2.5
 42
0.625
 43
0.38
 44
1.25
 45
0
 46
0
 47
0
 48
0
 49
1
140
2.5
141
0.09
142
0
143
25.4
144
1
145
0
146
1
147
0.625
148
0
 71
    0
 72
    0
 73
    0
 74
    1
 75
    0
 76
    0
 77
    0
 78
    8
 79
    0
170
    0
171
    2
172
    0
173
    0
174
    0
175
    0
176
    0
177
    0
178
    0
179
    0
271
    2
272
    4
273
    2
274
    2
275
    0
276
    0
277
    2
278
   44
279
    0
280
    0
281
    0
282
    0
283
    1
284
    0
285
    0
286
    0
288
    0
289
    3
340
STANDARD
341

371
   -2
372
   -2
  0
ENDTAB
  0
TABLE
  2
BLOCK_RECORD
  5
1
330
0
100
AcDbSymbolTable
 70
    2
  0
BLOCK_RECORD
  5
1F
330
1
100
AcDbSymbolTableRecord
100
AcDbBlockTableRecord
  2
*Model_Space
 70
    0
280
    1
281
    0
  0
BLOCK_RECORD
  5
1E
330
1
100
AcDbSymbolTableRecord
100
AcDbBlockTableRecord
  2
*Paper_Space
 70
    0
280
    1
281
    0
  0
ENDTAB
  0
ENDSEC
  0
SECTION
  2
BLOCKS
  0
BLOCK
  5
20
330
1F
100
AcDbEntity
  8
0
100
AcDbBlockBegin
  2
*Model_Space
 70
    0
 10
0
 20
0
 30
0
  3
*Model_Space
  1

  0
ENDBLK
  5
21
330
1F
100
AcDbEntity
  8
0
100
AcDbBlockEnd
  0
BLOCK
  5
1C
330
1B
100
AcDbEntity
  8
0
100
AcDbBlockBegin
  2
*Paper_Space
 70
    0
 10
0
 20
0
 30
0
  3
*Paper_Space
  1

  0
ENDBLK
  5
1D
330
1F
100
AcDbEntity
  8
0
100
AcDbBlockEnd
  0
ENDSEC
  0
SECTION
  2
ENTITIES
  0
LINE
  5
55
100
AcDbEntity
  8
ref
  6
ByLayer
 62
  256
370
   -1
100
AcDbLine
 10
-50
 20
0
 11
50
 21
0
  0
LINE
  5
56
100
AcDbEntity
  8
ref
  6
ByLayer
 62
  256
370
   -1
100
AcDbLine
 10
-3.061616997868383e-15
 20
-50
 11
3.061616997868383e-15
 21
50
  0
CIRCLE
  5
57
100
AcDbEntity
  8
ref
  6
ByLayer
 62
  256
370
   -1
100
AcDbCircle
 10
0
 20
0
 40
32.4
  0
CIRCLE
  5
58
100
AcDbEntity
  8
ref
  6
ByLayer
 62
  256
370
   -1
100
AcDbCircle
 10
0
 20
0
 40
30.2
  0
CIRCLE
  5
59
100
AcDbEntity
  8
ref
  6
ByLayer
 62
  256
370
   -1
100
AcDbCircle
 10
0
 20
0
 40
35.75
  0
LINE
  5
5A
100
AcDbEntity
  8
ref
  6
ByLayer
 62
  256
370
   -1
100
AcDbLine
 10
-31.81980515339463
 20
-31.81980515339463
 11
31.11269837220809
 21
31.11269837220809
  0
LINE
  5
5B
100
AcDbEntity
  8
ref
  6
ByLayer
 62
  256
370
   -1
100
AcDbLine
 10
-31.81980515339463
 20
31.81980515339463
 11
35.35533905932738
 21
-35.35533905932738
  0
LINE
  5
5C
100
AcDbEntity
  8
0
  6
ByLayer
 62
  256
370
   -1
100
AcDbLine
 10
17.75
 20
39.75
 11
37.75
 21
19.75
  0
LINE
  5
5D
100
AcDbEntity
  8
0
  6
ByLayer
 62
  256
370
   -1
100
AcDbLine
 10
-17.75000000000002
 20
39.75
 11
17.75
 21
39.75
  0
LINE
  5
5E
100
AcDbEntity
  8
0
  6
ByLayer
 62
  256
370
   -1
100
AcDbLine
 10
-17.75000000000002
 20
39.75
 11
-37.75000000000001
 21
19.75
  0
LINE
  5
5F
100
AcDbEntity
  8
0
  6
ByLayer
 62
  256
370
   -1
100
AcDbLine
 10
-37.75
 20
-19.74999999999999
 11
-37.75000000000001
 21
19.75
  0
LINE
  5
60
100
AcDbEntity
  8
0
  6
ByLayer
 62
  256
370
   -1
100
AcDbLine
 10
37.75
 20
-19.75
 11
37.75
 21
19.75
  0
CIRCLE
  5
61
100
AcDbEntity
  8
ref
  6
ByLayer
 62
  256
370
   -1
100
AcDbCircle
 10
6.769577590282887e-15
 20
0
 40
23.91780821917808
  0
CIRCLE
  5
62
100
AcDbEntity
  8
0
  6
ByLayer
 62
  256
370
   -1
100
AcDbCircle
 10
22.09717347622886
 20
-9.152948943965029
 40
6
  0
CIRCLE
  5
63
100
AcDbEntity
  8
0
  6
ByLayer
 62
  256
370
   -1
100
AcDbCircle
 10
22.09717347622887
 20
9.152948943965022
 40
6
  0
CIRCLE
  5
64
100
AcDbEntity
  8
0
  6
ByLayer
 62
  256
370
   -1
100
AcDbCircle
 10
9.152948943965038
 20
22.09717347622886
 40
6
  0
CIRCLE
  5
65
100
AcDbEntity
  8
0
  6
ByLayer
 62
  256
370
   -1
100
AcDbCircle
 10
-9.152948943965015
 20
22.09717347622887
 40
6
  0
CIRCLE
  5
66
100
AcDbEntity
  8
0
  6
ByLayer
 62
  256
370
   -1
100
AcDbCircle
 10
-22.09717347622886
 20
9.15294894396504
 40
6
  0
CIRCLE
  5
67
100
AcDbEntity
  8
0
  6
ByLayer
 62
  256
370
   -1
100
AcDbCircle
 10
-22.09717347622886
 20
-9.152948943965011
 40
6
  0
CIRCLE
  5
68
100
AcDbEntity
  8
0
  6
ByLayer
 62
  256
370
   -1
100
AcDbCircle
 10
-9.152948943965033
 20
-22.09717347622886
 40
6
  0
CIRCLE
  5
69
100
AcDbEntity
  8
0
  6
ByLayer
 62
  256
370
   -1
100
AcDbCircle
 10
9.152948943965018
 20
-22.09717347622886
 40
6
  0
ARC
  5
6A
100
AcDbEntity
  8
30
  6
ByLayer
 62
  256
370
   -1
100
AcDbCircle
 10
9.15294894396504
 20
22.09717347622886
 40
8.000000000000002
100
AcDbArc
 50
157.49999927915
 51
337.5
  0
ARC
  5
6B
100
AcDbEntity
  8
30
  6
ByLayer
 62
  256
370
   -1
100
AcDbCircle
 10
22.09717347622887
 20
9.152948943965015
 40
8.000000000000002
100
AcDbArc
 50
112.4999992791501
 51
292.5
  0
ARC
  5
6C
100
AcDbEntity
  8
30
  6
ByLayer
 62
  256
370
   -1
100
AcDbCircle
 10
22.09717347622886
 20
-9.152948943965042
 40
8.000000000000002
100
AcDbArc
 50
67.49999927915
 51
247.5
  0
ARC
  5
6D
100
AcDbEntity
  8
30
  6
ByLayer
 62
  256
370
   -1
100
AcDbCircle
 10
9.152948943965026
 20
-22.09717347622886
 40
8.000000000000002
100
AcDbArc
 50
22.49999927915005
 51
202.5000000000001
  0
ARC
  5
6E
100
AcDbEntity
  8
30
  6
ByLayer
 62
  256
370
   -1
100
AcDbCircle
 10
-9.152948943965052
 20
-22.09717347622885
 40
8.000000000000002
100
AcDbArc
 50
337.49999927915
 51
157.4999999999999
  0
ARC
  5
6F
100
AcDbEntity
  8
30
  6
ByLayer
 62
  256
370
   -1
100
AcDbCircle
 10
-22.09717347622888
 20
-9.152948943964969
 40
8.000000000000002
100
AcDbArc
 50
292.49999927915
 51
112.5
  0
ARC
  5
70
100
AcDbEntity
  8
30
  6
ByLayer
 62
  256
370
   -1
100
AcDbCircle
 10
-22.09717347622886
 20
9.152948943965029
 40
8.000000000000002
100
AcDbArc
 50
247.4999992791499
 51
67.50000000000038
  0
ARC
  5
71
100
AcDbEntity
  8
30
  6
ByLayer
 62
  256
370
   -1
100
AcDbCircle
 10
-9.152948943964921
 20
22.09717347622891
 40
8.000000000000002
100
AcDbArc
 50
202.4999992791496
 51
22.50000000000013
  0
LINE
  5
72
100
AcDbEntity
  8
0
  6
ByLayer
 62
  256
370
   -1
100
AcDbLine
 10
-17.75
 20
-39.74999999999999
 11
-37.75
 21
-19.74999999999999
  0
LINE
  5
73
100
AcDbEntity
  8
0
  6
ByLayer
 62
  256
370
   -1
100
AcDbLine
 10
17.75000000000001
 20
-39.74999999999999
 11
37.75
 21
-19.75
  0
LINE
  5
74
100
AcDbEntity
  8
0
  6
ByLayer
 62
  256
370
   -1
100
AcDbLine
 10
-17.75
 20
-39.74999999999999
 11
17.75000000000001
 21
-39.74999999999999
  0
CIRCLE
  5
75
100
AcDbEntity
  8
0
  6
ByLayer
 62
  256
370
   -1
100
AcDbCircle
 10
25.27906742741908
 20
25.27906742741908
 40
1.8
  0
CIRCLE
  5
76
100
AcDbEntity
  8
0
  6
ByLayer
 62
  256
370
   -1
100
AcDbCircle
 10
-25.27906742741906
 20
25.27906742741908
 40
1.8
  0
CIRCLE
  5
77
100
AcDbEntity
  8
0
  6
ByLayer
 62
  256
370
   -1
100
AcDbCircle
 10
-25.27906742741907
 20
-25.27906742741907
 40
1.8
  0
CIRCLE
  5
78
100
AcDbEntity
  8
0
  6
ByLayer
 62
  256
370
   -1
100
AcDbCircle
 10
25.27906742741907
 20
-25.27906742741907
 40
1.8
  0
CIRCLE
  5
79
100
AcDbEntity
  8
30
  6
ByLayer
 62
  256
370
   -1
100
AcDbCircle
 10
7.105427357601002e-15
 20
-4.690397240734364e-15
 40
38.3
  0
CIRCLE
  5
7A
100
AcDbEntity
  8
1
  6
ByLayer
 62
  256
370
   -1
100
AcDbCircle
 10
25.27906742741908
 20
25.27906742741908
 40
1.3
  0
CIRCLE
  5
7B
100
AcDbEntity
  8
1
  6
ByLayer
 62
  256
370
   -1
100
AcDbCircle
 10
-25.27906742741906
 20
25.27906742741908
 40
1.3
  0
CIRCLE
  5
7C
100
AcDbEntity
  8
1
  6
ByLayer
 62
  256
370
   -1
100
AcDbCircle
 10
-25.27906742741907
 20
-25.27906742741907
 40
1.3
  0
CIRCLE
  5
7D
100
AcDbEntity
  8
1
  6
ByLayer
 62
  256
370
   -1
100
AcDbCircle
 10
25.27906742741907
 20
-25.27906742741907
 40
1.3
  0
CIRCLE
  5
7E
100
AcDbEntity
  8
30
  6
ByLayer
 62
  256
370
   -1
100
AcDbCircle
 10
25.27906742741908
 20
25.27906742741908
 40
1.8
  0
CIRCLE
  5
7F
100
AcDbEntity
  8
30
  6
ByLayer
 62
  256
370
   -1
100
AcDbCircle
 10
-25.27906742741906
 20
25.27906742741908
 40
1.8
  0
CIRCLE
  5
80
100
AcDbEntity
  8
30
  6
ByLayer
 62
  256
370
   -1
100
AcDbCircle
 10
-25.27906742741907
 20
-25.27906742741907
 40
1.8
  0
CIRCLE
  5
81
100
AcDbEntity
  8
30
  6
ByLayer
 62
  256
370
   -1
100
AcDbCircle
 10
25.27906742741907
 20
-25.27906742741907
 40
1.8
  0
LINE
  5
82
100
AcDbEntity
  8
30
  6
ByLayer
 62
  256
370
   -1
100
AcDbLine
 10
-3.49924941852898
 20
29.35294284236122
 11
-1.761912683874611
 21
25.1586409351496
  0
ARC
  5
83
100
AcDbEntity
  8
30
  6
ByLayer
 62
  256
370
   -1
100
AcDbCircle
 10
-3.037309652273337
 20
29.54428455854376
 40
0.5
100
AcDbArc
 50
95.86969016514144
 51
202.4999999999997
  0
ARC
  5
84
100
AcDbEntity
  8
30
  6
ByLayer
 62
  256
370
   -1
100
AcDbCircle
 10
0
 20
0
 40
30.2
100
AcDbArc
 50
84.13030983485827
 51
95.86969016514144
  0
LINE
  5
85
100
AcDbEntity
  8
30
  6
ByLayer
 62
  256
370
   -1
100
AcDbLine
 10
3.499249418529134
 20
29.35294284236119
 11
1.761912683874746
 21
25.15864093514958
  0
ARC
  5
86
100
AcDbEntity
  8
30
  6
ByLayer
 62
  256
370
   -1
100
AcDbCircle
 10
3.037309652273493
 20
29.54428455854374
 40
0.5
100
AcDbArc
 50
337.4999999999999
 51
84.13030983485842
  0
ARC
  5
87
100
AcDbEntity
  8
30
  6
ByLayer
 62
  256
370
   -1
100
AcDbCircle
 10
-23.03866620833713
 20
18.74326170496546
 40
0.5
100
AcDbArc
 50
140.8696901651414
 51
247.4999999999997
  0
ARC
  5
88
100
AcDbEntity
  8
30
  6
ByLayer
 62
  256
370
   -1
100
AcDbCircle
 10
-9.466330862652142e-30
 20
-9.573628439715028e-15
 40
30.2
100
AcDbArc
 50
129.1303098348583
 51
140.8696901651414
  0
ARC
  5
89
100
AcDbEntity
  8
30
  6
ByLayer
 62
  256
370
   -1
100
AcDbCircle
 10
-18.74326170496534
 20
23.03866620833722
 40
0.5
100
AcDbArc
 50
22.49999999999987
 51
129.1303098348585
  0
ARC
  5
8A
100
AcDbEntity
  8
30
  6
ByLayer
 62
  256
370
   -1
100
AcDbCircle
 10
-29.54428455854375
 20
-3.037309652273351
 40
0.5
100
AcDbArc
 50
185.8696901651414
 51
292.4999999999997
  0
ARC
  5
8B
100
AcDbEntity
  8
30
  6
ByLayer
 62
  256
370
   -1
100
AcDbCircle
 10
6.769577590282866e-15
 20
-1.634320602999792e-14
 40
30.2
100
AcDbArc
 50
174.1303098348583
 51
185.8696901651414
  0
ARC
  5
8C
100
AcDbEntity
  8
30
  6
ByLayer
 62
  256
370
   -1
100
AcDbCircle
 10
-29.54428455854373
 20
3.037309652273478
 40
0.5
100
AcDbArc
 50
67.49999999999987
 51
174.1303098348585
  0
ARC
  5
8D
100
AcDbEntity
  8
30
  6
ByLayer
 62
  256
370
   -1
100
AcDbCircle
 10
-18.74326170496545
 20
-23.03866620833714
 40
0.5
100
AcDbArc
 50
230.8696901651414
 51
337.4999999999997
  0
ARC
  5
8E
100
AcDbEntity
  8
30
  6
ByLayer
 62
  256
370
   -1
100
AcDbCircle
 10
1.634320602999789e-14
 20
-1.634320602999793e-14
 40
30.2
100
AcDbArc
 50
219.1303098348583
 51
230.8696901651414
  0
ARC
  5
8F
100
AcDbEntity
  8
30
  6
ByLayer
 62
  256
370
   -1
100
AcDbCircle
 10
-23.03866620833721
 20
-18.74326170496535
 40
0.5
100
AcDbArc
 50
112.4999999999998
 51
219.1303098348585
  0
ARC
  5
90
100
AcDbEntity
  8
30
  6
ByLayer
 62
  256
370
   -1
100
AcDbCircle
 10
3.037309652273356
 20
-29.54428455854377
 40
0.5
100
AcDbArc
 50
275.8696901651414
 51
22.49999999999972
  0
ARC
  5
91
100
AcDbEntity
  8
30
  6
ByLayer
 62
  256
370
   -1
100
AcDbCircle
 10
2.311278362028079e-14
 20
-9.573628439715054e-15
 40
30.2
100
AcDbArc
 50
264.1303098348583
 51
275.8696901651414
  0
ARC
  5
92
100
AcDbEntity
  8
30
  6
ByLayer
 62
  256
370
   -1
100
AcDbCircle
 10
-3.037309652273473
 20
-29.54428455854375
 40
0.5
100
AcDbArc
 50
157.4999999999999
 51
264.1303098348585
  0
ARC
  5
93
100
AcDbEntity
  8
30
  6
ByLayer
 62
  256
370
   -1
100
AcDbCircle
 10
23.03866620833715
 20
-18.74326170496547
 40
0.5
100
AcDbArc
 50
320.8696901651414
 51
67.49999999999972
  0
ARC
  5
94
100
AcDbEntity
  8
30
  6
ByLayer
 62
  256
370
   -1
100
AcDbCircle
 10
2.31127836202808e-14
 20
-2.603240987229339e-29
 40
30.2
100
AcDbArc
 50
309.1303098348583
 51
320.8696901651414
  0
ARC
  5
95
100
AcDbEntity
  8
30
  6
ByLayer
 62
  256
370
   -1
100
AcDbCircle
 10
18.74326170496536
 20
-23.03866620833723
 40
0.5
100
AcDbArc
 50
202.4999999999999
 51
309.1303098348585
  0
ARC
  5
96
100
AcDbEntity
  8
30
  6
ByLayer
 62
  256
370
   -1
100
AcDbCircle
 10
29.54428455854377
 20
3.037309652273338
 40
0.5
100
AcDbArc
 50
5.869690165141459
 51
112.4999999999997
  0
ARC
  5
97
100
AcDbEntity
  8
30
  6
ByLayer
 62
  256
370
   -1
100
AcDbCircle
 10
1.634320602999792e-14
 20
6.769577590282865e-15
 40
30.2
100
AcDbArc
 50
354.1303098348583
 51
5.869690165141459
  0
ARC
  5
98
100
AcDbEntity
  8
30
  6
ByLayer
 62
  256
370
   -1
100
AcDbCircle
 10
29.54428455854375
 20
-3.037309652273491
 40
0.5
100
AcDbArc
 50
247.4999999999999
 51
354.1303098348585
  0
ARC
  5
99
100
AcDbEntity
  8
30
  6
ByLayer
 62
  256
370
   -1
100
AcDbCircle
 10
18.74326170496547
 20
23.03866620833713
 40
0.5
100
AcDbArc
 50
50.86969016514141
 51
157.4999999999997
  0
ARC
  5
9A
100
AcDbEntity
  8
30
  6
ByLayer
 62
  256
370
   -1
100
AcDbCircle
 10
6.769577590282893e-15
 20
6.769577590282878e-15
 40
30.2
100
AcDbArc
 50
39.13030983485829
 51
50.86969016514141
  0
ARC
  5
9B
100
AcDbEntity
  8
30
  6
ByLayer
 62
  256
370
   -1
100
AcDbCircle
 10
23.03866620833723
 20
18.74326170496534
 40
0.5
100
AcDbArc
 50
292.4999999999998
 51
39.13030983485844
  0
LINE
  5
9C
100
AcDbEntity
  8
30
  6
ByLayer
 62
  256
370
   -1
100
AcDbLine
 10
18.28132193870983
 20
23.23000792451968
 11
16.54398520405534
 21
19.03570601730814
  0
LINE
  5
9D
100
AcDbEntity
  8
30
  6
ByLayer
 62
  256
370
   -1
100
AcDbLine
 10
23.23000792451978
 20
18.2813219387097
 11
19.03570601730816
 21
16.54398520405531
  0
LINE
  5
9E
100
AcDbEntity
  8
30
  6
ByLayer
 62
  256
370
   -1
100
AcDbLine
 10
29.35294284236123
 20
3.499249418528982
 11
25.15864093514959
 21
1.761912683874717
  0
LINE
  5
9F
100
AcDbEntity
  8
30
  6
ByLayer
 62
  256
370
   -1
100
AcDbLine
 10
29.35294284236121
 20
-3.499249418529134
 11
25.15864093514958
 21
-1.76191268387475
  0
LINE
  5
A0
100
AcDbEntity
  8
30
  6
ByLayer
 62
  256
370
   -1
100
AcDbLine
 10
23.23000753139551
 20
-18.28132177587234
 11
19.03570601730814
 21
-16.54398520405534
  0
LINE
  5
A1
100
AcDbEntity
  8
30
  6
ByLayer
 62
  256
370
   -1
100
AcDbLine
 10
18.28132180780793
 20
-23.2300076084949
 11
16.54398520405532
 21
-19.03570601730814
  0
LINE
  5
A2
100
AcDbEntity
  8
30
  6
ByLayer
 62
  256
370
   -1
100
AcDbLine
 10
-3.499249370155654
 20
-29.35294272557722
 11
-1.761912683874761
 21
-25.15864093514958
  0
LINE
  5
A3
100
AcDbEntity
  8
30
  6
ByLayer
 62
  256
370
   -1
100
AcDbLine
 10
3.499249418529001
 20
-29.35294284236122
 11
1.761912683874728
 21
-25.15864093514958
  0
LINE
  5
A4
100
AcDbEntity
  8
30
  6
ByLayer
 62
  256
370
   -1
100
AcDbLine
 10
-23.23000792451975
 20
-18.28132193870971
 11
-19.03570601730818
 21
-16.54398520405527
  0
LINE
  5
A5
100
AcDbEntity
  8
30
  6
ByLayer
 62
  256
370
   -1
100
AcDbLine
 10
-18.28132193870981
 20
-23.23000792451969
 11
-16.54398520405535
 21
-19.03570601730812
  0
LINE
  5
A6
100
AcDbEntity
  8
30
  6
ByLayer
 62
  256
370
   -1
100
AcDbLine
 10
-29.35294251289576
 20
3.499249282060074
 11
-25.15864093514958
 21
1.761912683874733
  0
LINE
  5
A7
100
AcDbEntity
  8
30
  6
ByLayer
 62
  256
370
   -1
100
AcDbLine
 10
-29.35294251289576
 20
-3.499249282059993
 11
-25.15864093514958
 21
-1.761912683874668
  0
LINE
  5
A8
100
AcDbEntity
  8
30
  6
ByLayer
 62
  256
370
   -1
100
AcDbLine
 10
-18.28132174879539
 20
23.2300074660264
 11
-16.54398520405523
 21
19.03570601730823
  0
LINE
  5
A9
100
AcDbEntity
  8
30
  6
ByLayer
 62
  256
370
   -1
100
AcDbLine
 10
-23.23000792451967
 20
18.28132193870982
 11
-19.03570601730814
 21
16.54398520405532
  0
CIRCLE
  5
AA
100
AcDbEntity
  8
0
  6
ByLayer
 62
  256
370
   -1
100
AcDbCircle
 10
3.384788795141444e-15
 20
3.384788795141444e-15
 40
1.25
  0
ARC
  5
AB
100
AcDbEntity
  8
0
  6
ByLayer
 62
  256
370
   -1
100
AcDbCircle
 10
-4.171191794132909
 20
10.17846545489831
 40
1
100
AcDbArc
 50
112.2840914295459
 51
207.5000000000001
  0
ARC
  5
AC
100
AcDbEntity
  8
0
  6
ByLayer
 62
  256
370
   -1
100
AcDbCircle
 10
7.807228478801786e-15
 20
1.552954299392349e-15
 40
12
100
AcDbArc
 50
67.71590857045415
 51
112.2840914295459
  0
ARC
  5
AD
100
AcDbEntity
  8
0
  6
ByLayer
 62
  256
370
   -1
100
AcDbCircle
 10
4.171191794132913
 20
10.17846545489831
 40
1
100
AcDbArc
 50
332.5
 51
67.71590857045415
  0
ARC
  5
AE
100
AcDbEntity
  8
0
  6
ByLayer
 62
  256
370
   -1
100
AcDbCircle
 10
10.17846545489831
 20
4.171191794132907
 40
1
100
AcDbArc
 50
22.28409142954572
 51
117.5
  0
ARC
  5
AF
100
AcDbEntity
  8
0
  6
ByLayer
 62
  256
370
   -1
100
AcDbCircle
 10
4.143559487303598e-15
 20
-7.291925067928336e-15
 40
12
100
AcDbArc
 50
337.7159085704542
 51
22.28409142954593
  0
ARC
  5
B0
100
AcDbEntity
  8
0
  6
ByLayer
 62
  256
370
   -1
100
AcDbCircle
 10
10.17846545489832
 20
-4.171191794132916
 40
1
100
AcDbArc
 50
242.5000000000001
 51
337.7159085704542
  0
ARC
  5
B1
100
AcDbEntity
  8
0
  6
ByLayer
 62
  256
370
   -1
100
AcDbCircle
 10
4.171191794132908
 20
-10.17846545489831
 40
1
100
AcDbArc
 50
292.2840914295459
 51
27.49999999999999
  0
ARC
  5
B2
100
AcDbEntity
  8
0
  6
ByLayer
 62
  256
370
   -1
100
AcDbCircle
 10
-4.701319880017089e-15
 20
-3.628256076430145e-15
 40
12
100
AcDbArc
 50
247.7159085704542
 51
292.2840914295459
  0
ARC
  5
B3
100
AcDbEntity
  8
0
  6
ByLayer
 62
  256
370
   -1
100
AcDbCircle
 10
-4.171191794132913
 20
-10.17846545489832
 40
1
100
AcDbArc
 50
152.4999999999999
 51
247.7159085704543
  0
ARC
  5
B4
100
AcDbEntity
  8
0
  6
ByLayer
 62
  256
370
   -1
100
AcDbCircle
 10
-10.17846545489831
 20
-4.171191794132906
 40
1
100
AcDbArc
 50
202.284091429546
 51
297.5
  0
ARC
  5
B5
100
AcDbEntity
  8
0
  6
ByLayer
 62
  256
370
   -1
100
AcDbCircle
 10
-1.037650888518896e-15
 20
5.216623290890538e-15
 40
12
100
AcDbArc
 50
157.7159085704541
 51
202.2840914295459
  0
ARC
  5
B6
100
AcDbEntity
  8
0
  6
ByLayer
 62
  256
370
   -1
100
AcDbCircle
 10
-10.17846545489831
 20
4.171191794132917
 40
1
100
AcDbArc
 50
62.49999999999998
 51
157.7159085704542
  0
LINE
  5
B7
100
AcDbEntity
  8
0
  6
ByLayer
 62
  256
370
   -1
100
AcDbLine
 10
-2.217527082945556
 20
1.154371533087587
 11
-9.716716841663278
 21
5.058202627311139
  0
LINE
  5
B8
100
AcDbEntity
  8
0
  6
ByLayer
 62
  256
370
   -1
100
AcDbLine
 10
-2.217527082945555
 20
-1.154371533087587
 11
-9.716716841663278
 21
-5.058202627311128
  0
ARC
  5
B9
100
AcDbEntity
  8
0
  6
ByLayer
 62
  256
370
   -1
100
AcDbCircle
 10
-2.869485384267992e-15
 20
7.941836072301977e-16
 40
2.5
100
AcDbArc
 50
152.4999999999999
 51
207.5000000000001
  0
LINE
  5
BA
100
AcDbEntity
  8
0
  6
ByLayer
 62
  256
370
   -1
100
AcDbLine
 10
-1.154371533087585
 20
2.217527082945556
 11
-5.05820262731113
 21
9.716716841663274
  0
LINE
  5
BB
100
AcDbEntity
  8
0
  6
ByLayer
 62
  256
370
   -1
100
AcDbLine
 10
1.154371533087589
 20
2.217527082945558
 11
5.058202627311133
 21
9.716716841663279
  0
ARC
  5
BC
100
AcDbEntity
  8
0
  6
ByLayer
 62
  256
370
   -1
100
AcDbCircle
 10
3.384788795141444e-15
 20
3.384788795141444e-15
 40
2.5
100
AcDbArc
 50
62.50000000000001
 51
117.5000000000001
  0
LINE
  5
BD
100
AcDbEntity
  8
0
  6
ByLayer
 62
  256
370
   -1
100
AcDbLine
 10
2.217527082945559
 20
1.154371533087584
 11
9.716716841663279
 21
5.058202627311129
  0
LINE
  5
BE
100
AcDbEntity
  8
0
  6
ByLayer
 62
  256
370
   -1
100
AcDbLine
 10
2.21752708294556
 20
-1.154371533087588
 11
9.716716841663285
 21
-5.058202627311136
  0
ARC
  5
BF
100
AcDbEntity
  8
0
  6
ByLayer
 62
  256
370
   -1
100
AcDbCircle
 10
5.975393983052692e-15
 20
-2.869485384267994e-15
 40
2.5
100
AcDbArc
 50
332.5
 51
27.50000000000005
  0
LINE
  5
C0
100
AcDbEntity
  8
0
  6
ByLayer
 62
  256
370
   -1
100
AcDbLine
 10
1.154371533087587
 20
-2.217527082945559
 11
5.058202627311131
 21
-9.716716841663278
  0
LINE
  5
C1
100
AcDbEntity
  8
0
  6
ByLayer
 62
  256
370
   -1
100
AcDbLine
 10
-1.154371533087587
 20
-2.217527082945558
 11
-5.058202627311135
 21
-9.716716841663279
  0
ARC
  5
C2
100
AcDbEntity
  8
0
  6
ByLayer
 62
  256
370
   -1
100
AcDbCircle
 10
-2.78880196356746e-16
 20
-5.460090572179242e-15
 40
2.5
100
AcDbArc
 50
242.5
 51
297.5
  0
LINE
  5
C3
100
AcDbEntity
  8
1
  6
ByLayer
 62
  256
370
   -1
100
AcDbLine
 10
37.74999999999999
 20
-6.467418341193056
 11
37.75
 21
6.46741834119301
  0
LINE
  5
C4
100
AcDbEntity
  8
1
  6
ByLayer
 62
  256
370
   -1
100
AcDbLine
 10
-37.75000000000001
 20
-6.467418341193067
 11
-37.75000000000001
 21
6.467418341193044
  0
LINE
  5
C5
100
AcDbEntity
  8
10
  6
ByLayer
 62
  256
370
   -1
100
AcDbLine
 10
-17.75000000000002
 20
39.75
 11
17.75
 21
39.75
  0
LINE
  5
C6
100
AcDbEntity
  8
10
  6
ByLayer
 62
  256
370
   -1
100
AcDbLine
 10
-17.75
 20
-39.74999999999999
 11
-37.75
 21
-19.74999999999999
  0
LINE
  5
C7
100
AcDbEntity
  8
10
  6
ByLayer
 62
  256
370
   -1
100
AcDbLine
 10
-17.75
 20
-39.74999999999999
 11
17.75000000000001
 21
-39.74999999999999
  0
LINE
  5
C8
100
AcDbEntity
  8
10
  6
ByLayer
 62
  256
370
   -1
100
AcDbLine
 10
17.75000000000001
 20
-39.74999999999999
 11
37.75
 21
-19.75
  0
CIRCLE
  5
C9
100
AcDbEntity
  8
10
  6
ByLayer
 62
  256
370
   -1
100
AcDbCircle
 10
-25.27906742741906
 20
25.27906742741908
 40
1.8
  0
CIRCLE
  5
CA
100
AcDbEntity
  8
10
  6
ByLayer
 62
  256
370
   -1
100
AcDbCircle
 10
25.27906742741908
 20
25.27906742741908
 40
1.8
  0
CIRCLE
  5
CB
100
AcDbEntity
  8
10
  6
ByLayer
 62
  256
370
   -1
100
AcDbCircle
 10
-25.27906742741907
 20
-25.27906742741907
 40
1.8
  0
CIRCLE
  5
CC
100
AcDbEntity
  8
10
  6
ByLayer
 62
  256
370
   -1
100
AcDbCircle
 10
25.27906742741907
 20
-25.27906742741907
 40
1.8
  0
CIRCLE
  5
CD
100
AcDbEntity
  8
ref
  6
ByLayer
 62
  256
370
   -1
100
AcDbCircle
 10
6.769577590282887e-15
 20
0
 40
45
  0
LINE
  5
CE
100
AcDbEntity
  8
10
  6
ByLayer
 62
  256
370
   -1
100
AcDbLine
 10
-17.75000000000002
 20
39.75
 11
-37.75000000000001
 21
19.74999999999999
  0
LINE
  5
CF
100
AcDbEntity
  8
10
  6
ByLayer
 62
  256
370
   -1
100
AcDbLine
 10
17.75
 20
39.75
 11
37.75
 21
19.75
  0
ARC
  5
D0
100
AcDbEntity
  8
1
  6
ByLayer
 62
  256
370
   -1
100
AcDbCircle
 10
0
 20
0
 40
30.7
100
AcDbArc
 50
266.913589033882
 51
273.086410966118
  0
ARC
  5
D1
100
AcDbEntity
  8
1
  6
ByLayer
 62
  256
370
   -1
100
AcDbCircle
 10
9.152948943965026
 20
-22.09738170988349
 40
6
100
AcDbArc
 50
112.4998091077302
 51
180
  0
ARC
  5
D2
100
AcDbEntity
  8
1
  6
ByLayer
 62
  256
370
   -1
100
AcDbCircle
 10
0
 20
0
 40
17.91800060212233
100
AcDbArc
 50
292.4998091077303
 51
247.5001908922697
  0
ARC
  5
D3
100
AcDbEntity
  8
1
  6
ByLayer
 62
  256
370
   -1
100
AcDbCircle
 10
-9.152948943965042
 20
-22.09738170988349
 40
6
100
AcDbArc
 50
2.544443745170813e-14
 51
67.5001908922697
  0
LINE
  5
D4
100
AcDbEntity
  8
1
  6
ByLayer
 62
  256
370
   -1
100
AcDbLine
 10
1.652948943965026
 20
-21.55519143571152
 11
1.652948943965026
 21
-30.65546867670832
  0
ARC
  5
D5
100
AcDbEntity
  8
1
  6
ByLayer
 62
  256
370
   -1
100
AcDbCircle
 10
9.152948943965026
 20
-21.55519143571152
 40
7.5
100
AcDbArc
 50
113.0074614474194
 51
180
  0
ARC
  5
D6
100
AcDbEntity
  8
1
  6
ByLayer
 62
  256
370
   -1
100
AcDbCircle
 10
0
 20
0
 40
15.91800060212233
100
AcDbArc
 50
293.0074614474192
 51
246.9925385525807
  0
LINE
  5
D7
100
AcDbEntity
  8
1
  6
ByLayer
 62
  256
370
   -1
100
AcDbLine
 10
-1.652948943965034
 20
-21.55519143571152
 11
-1.652948943965036
 21
-30.65546867670832
  0
ARC
  5
D8
100
AcDbEntity
  8
1
  6
ByLayer
 62
  256
370
   -1
100
AcDbCircle
 10
-9.152948943965033
 20
-21.55519143571152
 40
7.5
100
AcDbArc
 50
0
 51
66.99253855258075
  0
LINE
  5
D9
100
AcDbEntity
  8
1
  6
ByLayer
 62
  256
370
   -1
100
AcDbLine
 10
3.152948943965024
 20
-22.09738170988349
 11
3.152948943965024
 21
-22.9415240476558
  0
ARC
  5
DA
100
AcDbEntity
  8
1
  6
ByLayer
 62
  256
370
   -1
100
AcDbCircle
 10
9.152948943965027
 20
-22.9415240476558
 40
6
100
AcDbArc
 50
180
 51
291.7504501370638
  0
LINE
  5
DB
100
AcDbEntity
  8
1
  6
ByLayer
 62
  256
370
   -1
100
AcDbLine
 10
-3.152948943965043
 20
-22.09738170988349
 11
-3.152948943965042
 21
-22.9415240476558
  0
ARC
  5
DC
100
AcDbEntity
  8
1
  6
ByLayer
 62
  256
370
   -1
100
AcDbCircle
 10
0
 20
0
 40
30.7
100
AcDbArc
 50
291.7504501370639
 51
248.2495498629361
  0
ARC
  5
DD
100
AcDbEntity
  8
1
  6
ByLayer
 62
  256
370
   -1
100
AcDbCircle
 10
-9.152948943965043
 20
-22.9415240476558
 40
6
100
AcDbArc
 50
248.249549862936
 51
2.544443745170813e-14
  0
ARC
  5
DE
100
AcDbEntity
  8
10
  6
ByLayer
 62
  256
370
   -1
100
AcDbCircle
 10
45.00000000000001
 20
-1.102182119232618e-14
 40
2
100
AcDbArc
 50
90
 51
270
  0
ARC
  5
DF
100
AcDbEntity
  8
10
  6
ByLayer
 62
  256
370
   -1
100
AcDbCircle
 10
49.95998398718719
 20
2.999999999999998
 40
1.000000000000002
100
AcDbArc
 50
270
 51
450.0000587980068
  0
ARC
  5
E0
100
AcDbEntity
  8
10
  6
ByLayer
 62
  256
370
   -1
100
AcDbCircle
 10
49.95998398718719
 20
-3
 40
1
100
AcDbArc
 50
269.9999548162227
 51
450
  0
ARC
  5
E1
100
AcDbEntity
  8
10
  6
ByLayer
 62
  256
370
   -1
100
AcDbCircle
 10
-44.99999999999999
 20
0
 40
2
100
AcDbArc
 50
270.0000000000002
 51
450
  0
ARC
  5
E2
100
AcDbEntity
  8
10
  6
ByLayer
 62
  256
370
   -1
100
AcDbCircle
 10
-49.95998398718719
 20
3.000000000000002
 40
1.000000000000002
100
AcDbArc
 50
90
 51
270
  0
ARC
  5
E3
100
AcDbEntity
  8
10
  6
ByLayer
 62
  256
370
   -1
100
AcDbCircle
 10
-49.95998398718719
 20
-3
 40
1
100
AcDbArc
 50
89.99994331770353
 51
270
  0
LINE
  5
E4
100
AcDbEntity
  8
10
  6
ByLayer
 62
  256
370
   -1
100
AcDbLine
 10
45.00000000000001
 20
1.999999999999996
 11
49.95998398718719
 21
1.999999999999996
  0
LINE
  5
E5
100
AcDbEntity
  8
10
  6
ByLayer
 62
  256
370
   -1
100
AcDbLine
 10
45.00000000000001
 20
-2.000000000000011
 11
49.95998398718719
 21
-2
  0
LINE
  5
E6
100
AcDbEntity
  8
10
  6
ByLayer
 62
  256
370
   -1
100
AcDbLine
 10
-49.95998398718719
 20
2
 11
-44.99999999999999
 21
2
  0
LINE
  5
E7
100
AcDbEntity
  8
10
  6
ByLayer
 62
  256
370
   -1
100
AcDbLine
 10
-49.95998398718719
 20
-2
 11
-44.99999999999999
 21
-2
  0
LINE
  5
E8
100
AcDbEntity
  8
10
  6
ByLayer
 62
  256
370
   -1
100
AcDbLine
 10
-49.95998398718719
 20
4.000000000000004
 11
-42.75000000000001
 21
4.000000000000004
  0
ARC
  5
E9
100
AcDbEntity
  8
10
  6
ByLayer
 62
  256
370
   -1
100
AcDbCircle
 10
-42.75000000000001
 20
9.000000000000004
 40
5
100
AcDbArc
 50
270
 51
5.088887490341627e-14
  0
LINE
  5
EA
100
AcDbEntity
  8
10
  6
ByLayer
 62
  256
370
   -1
100
AcDbLine
 10
-49.95998398718719
 20
-4
 11
-42.75
 21
-4
  0
ARC
  5
EB
100
AcDbEntity
  8
10
  6
ByLayer
 62
  256
370
   -1
100
AcDbCircle
 10
-42.75
 20
-9
 40
5
100
AcDbArc
 50
2.544443745170813e-14
 51
90
  0
LINE
  5
EC
100
AcDbEntity
  8
10
  6
ByLayer
 62
  256
370
   -1
100
AcDbLine
 10
42.75
 20
4.000000000000001
 11
49.95998398718719
 21
4
  0
ARC
  5
ED
100
AcDbEntity
  8
10
  6
ByLayer
 62
  256
370
   -1
100
AcDbCircle
 10
42.75
 20
9
 40
5
100
AcDbArc
 50
180
 51
270
  0
LINE
  5
EE
100
AcDbEntity
  8
10
  6
ByLayer
 62
  256
370
   -1
100
AcDbLine
 10
42.75
 20
-4
 11
49.95998398718719
 21
-4
  0
ARC
  5
EF
100
AcDbEntity
  8
10
  6
ByLayer
 62
  256
370
   -1
100
AcDbCircle
 10
42.75
 20
-9
 40
5
100
AcDbArc
 50
90
 51
180
  0
LINE
  5
F0
100
AcDbEntity
  8
10
  6
ByLayer
 62
  256
370
   -1
100
AcDbLine
 10
37.75
 20
19.75
 11
37.75
 21
9
  0
LINE
  5
F1
100
AcDbEntity
  8
10
  6
ByLayer
 62
  256
370
   -1
100
AcDbLine
 10
37.75
 20
-9
 11
37.75
 21
-19.75
  0
LINE
  5
F2
100
AcDbEntity
  8
10
  6
ByLayer
 62
  256
370
   -1
100
AcDbLine
 10
-37.75000000000001
 20
19.74999999999999
 11
-37.75000000000001
 21
9.000000000000007
  0
LINE
  5
F3
100
AcDbEntity
  8
10
  6
ByLayer
 62
  256
370
   -1
100
AcDbLine
 10
-37.75
 20
-8.999999999999998
 11
-37.75
 21
-19.74999999999999
  0
LINE
  5
F4
100
AcDbEntity
  8
11
  6
ByLayer
 62
  256
370
   -1
100
AcDbLine
 10
-17.75000000000002
 20
39.75
 11
17.75
 21
39.75
  0
LINE
  5
F5
100
AcDbEntity
  8
11
  6
ByLayer
 62
  256
370
   -1
100
AcDbLine
 10
-17.75000000000002
 20
39.75
 11
-37.75000000000001
 21
19.74999999999999
  0
LINE
  5
F6
100
AcDbEntity
  8
11
  6
ByLayer
 62
  256
370
   -1
100
AcDbLine
 10
-37.75000000000001
 20
19.74999999999999
 11
-37.75000000000001
 21
9.000000000000007
  0
ARC
  5
F7
100
AcDbEntity
  8
11
  6
ByLayer
 62
  256
370
   -1
100
AcDbCircle
 10
-42.75000000000001
 20
9.000000000000004
 40
5
100
AcDbArc
 50
270
 51
5.088887490341627e-14
  0
LINE
  5
F8
100
AcDbEntity
  8
11
  6
ByLayer
 62
  256
370
   -1
100
AcDbLine
 10
-49.95998398718719
 20
4.000000000000004
 11
-42.75000000000001
 21
4.000000000000004
  0
ARC
  5
F9
100
AcDbEntity
  8
11
  6
ByLayer
 62
  256
370
   -1
100
AcDbCircle
 10
-49.95998398718719
 20
3.000000000000002
 40
1.000000000000002
100
AcDbArc
 50
90
 51
270
  0
LINE
  5
FA
100
AcDbEntity
  8
11
  6
ByLayer
 62
  256
370
   -1
100
AcDbLine
 10
-49.95998398718719
 20
2
 11
-44.99999999999999
 21
2
  0
ARC
  5
FB
100
AcDbEntity
  8
11
  6
ByLayer
 62
  256
370
   -1
100
AcDbCircle
 10
-44.99999999999999
 20
0
 40
2
100
AcDbArc
 50
270.0000000000002
 51
450
  0
LINE
  5
FC
100
AcDbEntity
  8
11
  6
ByLayer
 62
  256
370
   -1
100
AcDbLine
 10
-49.95998398718719
 20
-2
 11
-44.99999999999999
 21
-2
  0
ARC
  5
FD
100
AcDbEntity
  8
11
  6
ByLayer
 62
  256
370
   -1
100
AcDbCircle
 10
-49.95998398718719
 20
-3
 40
1
100
AcDbArc
 50
89.99994331770353
 51
270
  0
LINE
  5
FE
100
AcDbEntity
  8
11
  6
ByLayer
 62
  256
370
   -1
100
AcDbLine
 10
-49.95998398718719
 20
-4
 11
-42.75
 21
-4
  0
ARC
  5
FF
100
AcDbEntity
  8
11
  6
ByLayer
 62
  256
370
   -1
100
AcDbCircle
 10
-42.75
 20
-9
 40
5
100
AcDbArc
 50
2.544443745170813e-14
 51
90
  0
LINE
  5
100
100
AcDbEntity
  8
11
  6
ByLayer
 62
  256
370
   -1
100
AcDbLine
 10
-37.75
 20
-8.999999999999998
 11
-37.75
 21
-19.74999999999999
  0
LINE
  5
101
100
AcDbEntity
  8
11
  6
ByLayer
 62
  256
370
   -1
100
AcDbLine
 10
-17.75
 20
-39.74999999999999
 11
-37.75
 21
-19.74999999999999
  0
LINE
  5
102
100
AcDbEntity
  8
11
  6
ByLayer
 62
  256
370
   -1
100
AcDbLine
 10
-17.75
 20
-39.74999999999999
 11
17.75000000000001
 21
-39.74999999999999
  0
LINE
  5
103
100
AcDbEntity
  8
11
  6
ByLayer
 62
  256
370
   -1
100
AcDbLine
 10
17.75000000000001
 20
-39.74999999999999
 11
37.75
 21
-19.75
  0
LINE
  5
104
100
AcDbEntity
  8
11
  6
ByLayer
 62
  256
370
   -1
100
AcDbLine
 10
37.75
 20
-9
 11
37.75
 21
-19.75
  0
ARC
  5
105
100
AcDbEntity
  8
11
  6
ByLayer
 62
  256
370
   -1
100
AcDbCircle
 10
42.75
 20
-9
 40
5
100
AcDbArc
 50
90
 51
180
  0
LINE
  5
106
100
AcDbEntity
  8
11
  6
ByLayer
 62
  256
370
   -1
100
AcDbLine
 10
42.75
 20
-4
 11
49.95998398718719
 21
-4
  0
ARC
  5
107
100
AcDbEntity
  8
11
  6
ByLayer
 62
  256
370
   -1
100
AcDbCircle
 10
49.95998398718719
 20
-3
 40
1
100
AcDbArc
 50
269.9999548162227
 51
450
  0
LINE
  5
108
100
AcDbEntity
  8
11
  6
ByLayer
 62
  256
370
   -1
100
AcDbLine
 10
45.00000000000001
 20
-2.000000000000011
 11
49.95998398718719
 21
-2
  0
ARC
  5
109
100
AcDbEntity
  8
11
  6
ByLayer
 62
  256
370
   -1
100
AcDbCircle
 10
45.00000000000001
 20
-1.102182119232618e-14
 40
2
100
AcDbArc
 50
90
 51
270
  0
LINE
  5
10A
100
AcDbEntity
  8
11
  6
ByLayer
 62
  256
370
   -1
100
AcDbLine
 10
45.00000000000001
 20
1.999999999999996
 11
49.95998398718719
 21
1.999999999999996
  0
ARC
  5
10B
100
AcDbEntity
  8
11
  6
ByLayer
 62
  256
370
   -1
100
AcDbCircle
 10
49.95998398718719
 20
2.999999999999998
 40
1.000000000000002
100
AcDbArc
 50
270
 51
450.0000587980068
  0
LINE
  5
10C
100
AcDbEntity
  8
11
  6
ByLayer
 62
  256
370
   -1
100
AcDbLine
 10
42.75
 20
4.000000000000001
 11
49.95998398718719
 21
4
  0
ARC
  5
10D
100
AcDbEntity
  8
11
  6
ByLayer
 62
  256
370
   -1
100
AcDbCircle
 10
42.75
 20
9
 40
5
100
AcDbArc
 50
180
 51
270
  0
LINE
  5
10E
100
AcDbEntity
  8
11
  6
ByLayer
 62
  256
370
   -1
100
AcDbLine
 10
37.75
 20
19.75
 11
37.75
 21
9
  0
LINE
  5
10F
100
AcDbEntity
  8
11
  6
ByLayer
 62
  256
370
   -1
100
AcDbLine
 10
17.75
 20
39.75
 11
37.75
 21
19.75
  0
CIRCLE
  5
110
100
AcDbEntity
  8
11
  6
ByLayer
 62
  256
370
   -1
100
AcDbCircle
 10
25.27906742741908
 20
25.27906742741908
 40
3.5
  0
CIRCLE
  5
111
100
AcDbEntity
  8
11
  6
ByLayer
 62
  256
370
   -1
100
AcDbCircle
 10
-25.27906742741906
 20
25.27906742741908
 40
3.5
  0
CIRCLE
  5
112
100
AcDbEntity
  8
11
  6
ByLayer
 62
  256
370
   -1
100
AcDbCircle
 10
-25.27906742741907
 20
-25.27906742741907
 40
3.5
  0
CIRCLE
  5
113
100
AcDbEntity
  8
11
  6
ByLayer
 62
  256
370
   -1
100
AcDbCircle
 10
25.27906742741907
 20
-25.27906742741907
 40
3.5
  0
ARC
  5
114
100
AcDbEntity
  8
11
  6
ByLayer
 62
  256
370
   -1
100
AcDbCircle
 10
3.384788795141444e-15
 20
3.384788795141444e-15
 40
2.5
100
AcDbArc
 50
62.50000000000001
 51
117.5000000000001
  0
ARC
  5
115
100
AcDbEntity
  8
11
  6
ByLayer
 62
  256
370
   -1
100
AcDbCircle
 10
5.975393983052692e-15
 20
-2.869485384267994e-15
 40
2.5
100
AcDbArc
 50
332.5
 51
27.50000000000005
  0
ARC
  5
116
100
AcDbEntity
  8
11
  6
ByLayer
 62
  256
370
   -1
100
AcDbCircle
 10
-2.78880196356746e-16
 20
-5.460090572179242e-15
 40
2.5
100
AcDbArc
 50
242.5
 51
297.5
  0
ARC
  5
117
100
AcDbEntity
  8
11
  6
ByLayer
 62
  256
370
   -1
100
AcDbCircle
 10
-2.869485384267992e-15
 20
7.941836072301977e-16
 40
2.5
100
AcDbArc
 50
152.4999999999999
 51
207.5000000000001
  0
LINE
  5
118
100
AcDbEntity
  8
11
  6
ByLayer
 62
  256
370
   -1
100
AcDbLine
 10
1.154371533087589
 20
2.217527082945558
 11
12.18955120731111
 21
23.41591000504444
  0
ARC
  5
119
100
AcDbEntity
  8
11
  6
ByLayer
 62
  256
370
   -1
100
AcDbCircle
 10
8.641507874598222
 20
25.26290445798458
 40
4
100
AcDbArc
 50
332.5
 51
71.1160743845147
  0
ARC
  5
11A
100
AcDbEntity
  8
11
  6
ByLayer
 62
  256
370
   -1
100
AcDbCircle
 10
0
 20
0
 40
30.7
100
AcDbArc
 50
71.11607438451466
 51
108.8839256154854
  0
LINE
  5
11B
100
AcDbEntity
  8
11
  6
ByLayer
 62
  256
370
   -1
100
AcDbLine
 10
-1.154371533087585
 20
2.217527082945556
 11
-12.18955120731111
 21
23.41591000504444
  0
ARC
  5
11C
100
AcDbEntity
  8
11
  6
ByLayer
 62
  256
370
   -1
100
AcDbCircle
 10
-8.641507874598224
 20
25.26290445798458
 40
4
100
AcDbArc
 50
108.8839256154853
 51
207.5
  0
LINE
  5
11D
100
AcDbEntity
  8
11
  6
ByLayer
 62
  256
370
   -1
100
AcDbLine
 10
-2.217527082945556
 20
1.154371533087587
 11
-23.41591000504443
 21
12.18955120731112
  0
ARC
  5
11E
100
AcDbEntity
  8
11
  6
ByLayer
 62
  256
370
   -1
100
AcDbCircle
 10
-25.26290445798457
 20
8.641507874598236
 40
4
100
AcDbArc
 50
62.49999999999993
 51
161.1160743845147
  0
ARC
  5
11F
100
AcDbEntity
  8
11
  6
ByLayer
 62
  256
370
   -1
100
AcDbCircle
 10
0
 20
0
 40
30.7
100
AcDbArc
 50
161.1160743845146
 51
198.8839256154853
  0
LINE
  5
120
100
AcDbEntity
  8
11
  6
ByLayer
 62
  256
370
   -1
100
AcDbLine
 10
-2.217527082945555
 20
-1.154371533087587
 11
-23.41591000504445
 21
-12.1895512073111
  0
ARC
  5
121
100
AcDbEntity
  8
11
  6
ByLayer
 62
  256
370
   -1
100
AcDbCircle
 10
-25.26290445798458
 20
-8.641507874598211
 40
4
100
AcDbArc
 50
198.8839256154855
 51
297.4999999999999
  0
LINE
  5
122
100
AcDbEntity
  8
11
  6
ByLayer
 62
  256
370
   -1
100
AcDbLine
 10
-1.154371533087587
 20
-2.217527082945558
 11
-12.18955120731112
 21
-23.41591000504444
  0
ARC
  5
123
100
AcDbEntity
  8
11
  6
ByLayer
 62
  256
370
   -1
100
AcDbCircle
 10
-8.641507874598227
 20
-25.26290445798458
 40
4
100
AcDbArc
 50
152.5
 51
251.1160743845147
  0
ARC
  5
124
100
AcDbEntity
  8
11
  6
ByLayer
 62
  256
370
   -1
100
AcDbCircle
 10
0
 20
0
 40
30.7
100
AcDbArc
 50
251.1160743845147
 51
288.8839256154853
  0
LINE
  5
125
100
AcDbEntity
  8
11
  6
ByLayer
 62
  256
370
   -1
100
AcDbLine
 10
1.154371533087587
 20
-2.217527082945558
 11
12.1895512073111
 21
-23.41591000504444
  0
ARC
  5
126
100
AcDbEntity
  8
11
  6
ByLayer
 62
  256
370
   -1
100
AcDbCircle
 10
8.64150787459822
 20
-25.26290445798458
 40
4
100
AcDbArc
 50
288.8839256154852
 51
27.50000000000005
  0
LINE
  5
127
100
AcDbEntity
  8
11
  6
ByLayer
 62
  256
370
   -1
100
AcDbLine
 10
2.21752708294556
 20
-1.154371533087588
 11
23.41591000504444
 21
-12.18955120731111
  0
ARC
  5
128
100
AcDbEntity
  8
11
  6
ByLayer
 62
  256
370
   -1
100
AcDbCircle
 10
25.26290445798458
 20
-8.641507874598224
 40
4
100
AcDbArc
 50
242.5
 51
341.1160743845147
  0
ARC
  5
129
100
AcDbEntity
  8
11
  6
ByLayer
 62
  256
370
   -1
100
AcDbCircle
 10
0
 20
0
 40
30.7
100
AcDbArc
 50
341.1160743845147
 51
18.88392561548534
  0
LINE
  5
12A
100
AcDbEntity
  8
11
  6
ByLayer
 62
  256
370
   -1
100
AcDbLine
 10
2.21752708294556
 20
1.154371533087583
 11
23.41591000504445
 21
12.18955120731111
  0
ARC
  5
12B
100
AcDbEntity
  8
11
  6
ByLayer
 62
  256
370
   -1
100
AcDbCircle
 10
25.26290445798458
 20
8.64150787459822
 40
4
100
AcDbArc
 50
18.88392561548534
 51
117.5
  0
LINE
  5
12C
100
AcDbEntity
  8
1
  6
ByLayer
 62
  256
370
   -1
100
AcDbLine
 10
-27.08218971944477
 20
27.08218971944478
 11
-14.41437943888955
 21
39.75
  0
LINE
  5
12D
100
AcDbEntity
  8
1
  6
ByLayer
 62
  256
370
   -1
100
AcDbLine
 10
27.08218971944477
 20
27.08218971944477
 11
14.41437943888954
 21
39.75
  0
LINE
  5
12E
100
AcDbEntity
  8
1
  6
ByLayer
 62
  256
370
   -1
100
AcDbLine
 10
-14.41437943888955
 20
39.75
 11
14.41437943888954
 21
39.75
  0
ARC
  5
12F
100
AcDbEntity
  8
1
  6
ByLayer
 62
  256
370
   -1
100
AcDbCircle
 10
-7.105427357601002e-15
 20
8.701638870060103e-31
 40
38.3
100
AcDbArc
 50
135.0000005400727
 51
170.2783343912563
  0
ARC
  5
130
100
AcDbEntity
  8
1
  6
ByLayer
 62
  256
370
   -1
100
AcDbCircle
 10
-7.105427357601002e-15
 20
8.701638870060103e-31
 40
38.3
100
AcDbArc
 50
9.721665608743738
 51
44.99999894485745
  0
LINE
  5
131
100
AcDbEntity
  8
1
  6
ByLayer
 62
  256
370
   -1
100
AcDbLine
 10
27.08218971944477
 20
-27.08218971944479
 11
14.41437943888955
 21
-39.75
  0
LINE
  5
132
100
AcDbEntity
  8
1
  6
ByLayer
 62
  256
370
   -1
100
AcDbLine
 10
-27.08218971944477
 20
-27.08218971944477
 11
-14.41437943888955
 21
-39.75
  0
LINE
  5
133
100
AcDbEntity
  8
1
  6
ByLayer
 62
  256
370
   -1
100
AcDbLine
 10
14.41437943888955
 20
-39.75
 11
-14.41437943888955
 21
-39.75
  0
ARC
  5
134
100
AcDbEntity
  8
1
  6
ByLayer
 62
  256
370
   -1
100
AcDbCircle
 10
-7.105427357601002e-15
 20
8.701638870060103e-31
 40
38.3
100
AcDbArc
 50
315
 51
350.2783343912562
  0
ARC
  5
135
100
AcDbEntity
  8
1
  6
ByLayer
 62
  256
370
   -1
100
AcDbCircle
 10
-7.105427357601002e-15
 20
8.701638870060103e-31
 40
38.3
100
AcDbArc
 50
189.7216656087438
 51
225.0000012421451
  0
ARC
  5
136
100
AcDbEntity
  8
40
  6
ByLayer
 62
  256
370
   -1
100
AcDbCircle
 10
4.143559487303598e-15
 20
-7.291925067928336e-15
 40
14.00000000000001
100
AcDbArc
 50
47.0467130976726
 51
132.9532869023274
  0
ARC
  5
137
100
AcDbEntity
  8
40
  6
ByLayer
 62
  256
370
   -1
100
AcDbCircle
 10
4.143559487303598e-15
 20
-7.291925067928336e-15
 40
14.00000000000001
100
AcDbArc
 50
137.0467130976726
 51
222.9532869023274
  0
ARC
  5
138
100
AcDbEntity
  8
40
  6
ByLayer
 62
  256
370
   -1
100
AcDbCircle
 10
4.143559487303598e-15
 20
-7.291925067928336e-15
 40
14.00000000000001
100
AcDbArc
 50
227.0467130976725
 51
312.9532869023274
  0
ARC
  5
139
100
AcDbEntity
  8
40
  6
ByLayer
 62
  256
370
   -1
100
AcDbCircle
 10
4.143559487303598e-15
 20
-7.291925067928336e-15
 40
14.00000000000001
100
AcDbArc
 50
317.0467130976726
 51
402.9532869023275
  0
ARC
  5
13A
100
AcDbEntity
  8
40
  6
ByLayer
 62
  256
370
   -1
100
AcDbCircle
 10
3.384788795141444e-15
 20
3.384788795141444e-15
 40
1.25
100
AcDbArc
 50
111.4218215217982
 51
158.578178478202
  0
ARC
  5
13B
100
AcDbEntity
  8
40
  6
ByLayer
 62
  256
370
   -1
100
AcDbCircle
 10
3.384788795141444e-15
 20
3.384788795141444e-15
 40
1.25
100
AcDbArc
 50
68.57817847820185
 51
111.4218215217982
  0
ARC
  5
13C
100
AcDbEntity
  8
40
  6
ByLayer
 62
  256
370
   -1
100
AcDbCircle
 10
3.384788795141444e-15
 20
3.384788795141444e-15
 40
1.25
100
AcDbArc
 50
21.42182152179825
 51
68.57817847820185
  0
ARC
  5
13D
100
AcDbEntity
  8
40
  6
ByLayer
 62
  256
370
   -1
100
AcDbCircle
 10
3.384788795141444e-15
 20
3.384788795141444e-15
 40
1.25
100
AcDbArc
 50
338.5781784782016
 51
21.42182152179828
  0
ARC
  5
13E
100
AcDbEntity
  8
40
  6
ByLayer
 62
  256
370
   -1
100
AcDbCircle
 10
3.384788795141444e-15
 20
3.384788795141444e-15
 40
1.25
100
AcDbArc
 50
291.4218215217982
 51
338.5781784782016
  0
ARC
  5
13F
100
AcDbEntity
  8
40
  6
ByLayer
 62
  256
370
   -1
100
AcDbCircle
 10
3.384788795141444e-15
 20
3.384788795141444e-15
 40
1.25
100
AcDbArc
 50
248.5781784782018
 51
291.4218215217982
  0
ARC
  5
140
100
AcDbEntity
  8
40
  6
ByLayer
 62
  256
370
   -1
100
AcDbCircle
 10
3.384788795141444e-15
 20
3.384788795141444e-15
 40
1.25
100
AcDbArc
 50
158.5781784782021
 51
201.4218215217982
  0
ARC
  5
141
100
AcDbEntity
  8
40
  6
ByLayer
 62
  256
370
   -1
100
AcDbCircle
 10
3.384788795141444e-15
 20
3.384788795141444e-15
 40
1.25
100
AcDbArc
 50
201.4218215217982
 51
248.5781784782018
  0
ARC
  5
142
100
AcDbEntity
  8
40
  6
ByLayer
 62
  256
370
   -1
100
AcDbCircle
 10
4.143559487303598e-15
 20
-7.291925067928336e-15
 40
3.5
100
AcDbArc
 50
36.78678929826199
 51
53.21321070173827
  0
LINE
  5
143
100
AcDbEntity
  8
40
  6
ByLayer
 62
  256
370
   -1
100
AcDbLine
 10
2.80304313337645
 20
2.095936352189906
 11
10.24673285929797
 21
9.539626078111421
  0
LINE
  5
144
100
AcDbEntity
  8
40
  6
ByLayer
 62
  256
370
   -1
100
AcDbLine
 10
2.095936352189903
 20
2.803043133376448
 11
9.539626078111421
 21
10.24673285929797
  0
LINE
  5
145
100
AcDbEntity
  8
40
  6
ByLayer
 62
  256
370
   -1
100
AcDbLine
 10
-9.539626078111414
 20
10.24673285929797
 11
-2.095936352189894
 21
2.803043133376449
  0
LINE
  5
146
100
AcDbEntity
  8
40
  6
ByLayer
 62
  256
370
   -1
100
AcDbLine
 10
-10.24673285929797
 20
9.539626078111418
 11
-2.803043133376447
 21
2.095936352189899
  0
LINE
  5
147
100
AcDbEntity
  8
40
  6
ByLayer
 62
  256
370
   -1
100
AcDbLine
 10
-10.24673285929797
 20
-9.539626078111423
 11
-2.803043133376453
 21
-2.095936352189905
  0
LINE
  5
148
100
AcDbEntity
  8
40
  6
ByLayer
 62
  256
370
   -1
100
AcDbLine
 10
-9.539626078111423
 20
-10.24673285929797
 11
-2.095936352189907
 21
-2.803043133376454
  0
LINE
  5
149
100
AcDbEntity
  8
40
  6
ByLayer
 62
  256
370
   -1
100
AcDbLine
 10
2.095936352189913
 20
-2.803043133376456
 11
9.539626078111427
 21
-10.24673285929798
  0
LINE
  5
14A
100
AcDbEntity
  8
40
  6
ByLayer
 62
  256
370
   -1
100
AcDbLine
 10
2.803043133376457
 20
-2.095936352189911
 11
10.24673285929798
 21
-9.539626078111427
  0
ARC
  5
14B
100
AcDbEntity
  8
40
  6
ByLayer
 62
  256
370
   -1
100
AcDbCircle
 10
4.143559487303598e-15
 20
-7.291925067928336e-15
 40
3.5
100
AcDbArc
 50
216.7867892982617
 51
233.2132107017381
  0
ARC
  5
14C
100
AcDbEntity
  8
40
  6
ByLayer
 62
  256
370
   -1
100
AcDbCircle
 10
4.143559487303598e-15
 20
-7.291925067928336e-15
 40
3.5
100
AcDbArc
 50
126.7867892982617
 51
143.2132107017382
  0
ARC
  5
14D
100
AcDbEntity
  8
40
  6
ByLayer
 62
  256
370
   -1
100
AcDbCircle
 10
4.143559487303598e-15
 20
-7.291925067928336e-15
 40
3.5
100
AcDbArc
 50
306.7867892982619
 51
323.2132107017381
  0
CIRCLE
  5
14E
100
AcDbEntity
  8
100
  6
ByLayer
 62
  256
370
   -1
100
AcDbCircle
 10
-9
 20
0
 40
1.8
  0
CIRCLE
  5
14F
100
AcDbEntity
  8
100
  6
ByLayer
 62
  256
370
   -1
100
AcDbCircle
 10
9
 20
0
 40
1.8
  0
ARC
  5
150
100
AcDbEntity
  8
100
  6
ByLayer
 62
  256
370
   -1
100
AcDbCircle
 10
-13.4144
 20
5
 40
1
100
AcDbArc
 50
90
 51
179.9999999999996
  0
LINE
  5
151
100
AcDbEntity
  8
100
  6
ByLayer
 62
  256
370
   -1
100
AcDbLine
 10
-14.4144
 20
-5
 11
-14.4144
 21
5.000000000000007
  0
ARC
  5
152
100
AcDbEntity
  8
100
  6
ByLayer
 62
  256
370
   -1
100
AcDbCircle
 10
-13.4144
 20
-5
 40
1
100
AcDbArc
 50
180
 51
270
  0
LINE
  5
153
100
AcDbEntity
  8
100
  6
ByLayer
 62
  256
370
   -1
100
AcDbLine
 10
-13.4144
 20
-6
 11
13.4144
 21
-6
  0
ARC
  5
154
100
AcDbEntity
  8
100
  6
ByLayer
 62
  256
370
   -1
100
AcDbCircle
 10
13.4144
 20
-5
 40
1
100
AcDbArc
 50
270
 51
0
  0
LINE
  5
155
100
AcDbEntity
  8
100
  6
ByLayer
 62
  256
370
   -1
100
AcDbLine
 10
14.4144
 20
-5
 11
14.4144
 21
5
  0
LINE
  5
156
100
AcDbEntity
  8
100
  6
ByLayer
 62
  256
370
   -1
100
AcDbLine
 10
-13.4144
 20
6
 11
13.4144
 21
6
  0
ARC
  5
157
100
AcDbEntity
  8
100
  6
ByLayer
 62
  256
370
   -1
100
AcDbCircle
 10
13.4144
 20
5
 40
1
100
AcDbArc
 50
0
 51
90
  0
LINE
  5
158
100
AcDbEntity
  8
101
  6
ByLayer
 62
  256
370
   -1
100
AcDbLine
 10
-13.4144
 20
6
 11
13.4144
 21
6
  0
ARC
  5
159
100
AcDbEntity
  8
101
  6
ByLayer
 62
  256
370
   -1
100
AcDbCircle
 10
-13.4144
 20
5
 40
1
100
AcDbArc
 50
90
 51
179.9999999999996
  0
LINE
  5
15A
100
AcDbEntity
  8
101
  6
ByLayer
 62
  256
370
   -1
100
AcDbLine
 10
-14.4144
 20
-5
 11
-14.4144
 21
5.000000000000007
  0
ARC
  5
15B
100
AcDbEntity
  8
101
  6
ByLayer
 62
  256
370
   -1
100
AcDbCircle
 10
-13.4144
 20
-5
 40
1
100
AcDbArc
 50
180
 51
270
  0
LINE
  5
15C
100
AcDbEntity
  8
101
  6
ByLayer
 62
  256
370
   -1
100
AcDbLine
 10
-13.4144
 20
-6
 11
13.4144
 21
-6
  0
ARC
  5
15D
100
AcDbEntity
  8
101
  6
ByLayer
 62
  256
370
   -1
100
AcDbCircle
 10
13.4144
 20
-5
 40
1
100
AcDbArc
 50
270
 51
0
  0
LINE
  5
15E
100
AcDbEntity
  8
101
  6
ByLayer
 62
  256
370
   -1
100
AcDbLine
 10
14.4144
 20
-5
 11
14.4144
 21
5
  0
ARC
  5
15F
100
AcDbEntity
  8
101
  6
ByLayer
 62
  256
370
   -1
100
AcDbCircle
 10
13.4144
 20
5
 40
1
100
AcDbArc
 50
0
 51
90
  0
CIRCLE
  5
160
100
AcDbEntity
  8
101
  6
ByLayer
 62
  256
370
   -1
100
AcDbCircle
 10
9
 20
0
 40
1.8
  0
CIRCLE
  5
161
100
AcDbEntity
  8
101
  6
ByLayer
 62
  256
370
   -1
100
AcDbCircle
 10
-9
 20
0
 40
1.8
  0
CIRCLE
  5
162
100
AcDbEntity
  8
101
  6
ByLayer
 62
  256
370
   -1
100
AcDbCircle
 10
0
 20
0
 40
4.5
  0
CIRCLE
  5
163
100
AcDbEntity
  8
100
  6
ByLayer
 62
  256
370
   -1
100
AcDbCircle
 10
0
 20
0
 40
3.35
  0
ENDSEC
  0
SECTION
  2
OBJECTS
  0
DICTIONARY
  5
C
330
0
100
AcDbDictionary
281
    1
  3
ACAD_GROUP
350
D
  0
DICTIONARY
  5
D
330
C
100
AcDbDictionary
281
    1
  0
ENDSEC
  0
EOF
